<svg width="121" height="29" viewBox="0 0 121 29" fill="none" xmlns="http://www.w3.org/2000/svg">
<path d="M113.841 9.44129H120.706V10.9881H113.841V9.44129ZM120.706 19.8472V21.4409H118.696C118.196 21.4409 117.719 21.3393 117.266 21.1362C116.829 20.9331 116.477 20.6128 116.212 20.1753C115.946 19.7222 115.813 19.1206 115.813 18.3707V6.32422H117.571V18.1363C117.571 18.8238 117.688 19.2847 117.922 19.5191C118.157 19.7378 118.461 19.8472 118.836 19.8472H120.706Z" fill="white"/>
<path d="M110.522 14.1756C110.522 13.0038 110.225 12.16 109.631 11.6444C109.053 11.1132 108.28 10.8476 107.311 10.8476C106.686 10.8476 106.116 10.9882 105.6 11.2695C105.085 11.5351 104.678 11.9022 104.382 12.371C104.1 12.8397 103.96 13.3866 103.96 14.0115L103.233 13.8709C103.233 12.8866 103.46 12.0429 103.913 11.3398C104.382 10.6367 104.967 10.0976 105.671 9.72264C106.374 9.34765 107.092 9.16016 107.827 9.16016C108.686 9.16016 109.452 9.33984 110.123 9.6992C110.795 10.0429 111.319 10.5664 111.694 11.2695C112.084 11.9569 112.28 12.8006 112.28 13.8006V21.441H110.522V14.1756ZM102.178 9.4414H103.96V21.441H102.178V9.4414Z" fill="white"/>
<path d="M98.294 17.7231C98.294 17.7231 97.7841 18.7242 96.7483 19.4285C96.0914 19.8754 95.3806 20.0982 94.3987 20.0982C93.1206 20.0982 92.1502 19.6987 91.4876 18.8985C90.8984 18.1884 90.5723 17.1919 90.5068 15.9126H99.8478V15.2071C99.8478 14.0316 99.6055 12.9971 99.1231 12.1034C98.6397 11.2097 97.9805 10.5042 97.1468 9.98687C96.3131 9.46958 95.3496 9.21094 94.2586 9.21094C93.1676 9.21094 92.1307 9.4615 91.2889 9.96378C90.4471 10.4661 89.7994 11.1785 89.3481 12.1034C88.8957 13.0294 88.6694 14.1344 88.6694 15.4195C88.6694 16.7047 88.9037 17.8143 89.3711 18.7461C89.8385 19.6791 90.5011 20.3996 91.3589 20.9088C92.2156 21.418 93.2297 21.6732 94.3987 21.6732C95.9111 21.6732 97.0216 21.3291 97.9024 20.6386C98.642 20.0601 99.0749 19.5521 99.5411 18.7704L98.2952 17.7219L98.294 17.7231ZM90.539 14.4785C90.6022 13.8515 90.7296 13.3007 90.926 12.8331C91.2142 12.1438 91.6391 11.6219 92.2007 11.2697C92.7623 10.9175 93.4478 10.7409 94.2586 10.7409C94.9442 10.7409 95.5528 10.8933 96.0822 11.1993C96.6116 11.5052 97.0411 11.9359 97.3684 12.4925C97.6957 13.049 97.8909 13.7118 97.9529 14.4797H90.539V14.4785Z" fill="white"/>
<path d="M84.2249 6.23433C84.2249 5.87497 84.342 5.57029 84.5764 5.3203C84.8264 5.07031 85.1311 4.94531 85.4904 4.94531C85.8498 4.94531 86.1467 5.07031 86.381 5.3203C86.631 5.57029 86.756 5.87497 86.756 6.23433C86.756 6.57807 86.631 6.87493 86.381 7.12492C86.1467 7.37491 85.8498 7.49991 85.4904 7.49991C85.1311 7.49991 84.8264 7.37491 84.5764 7.12492C84.342 6.87493 84.2249 6.57807 84.2249 6.23433ZM84.5998 9.44154H86.381V21.4411H84.5998V9.44154Z" fill="white"/>
<path d="M71.1377 4.17578H72.9189V21.4414H71.1377V4.17578ZM72.0752 15.3947C72.0752 14.4573 72.1923 13.6057 72.4267 12.8401C72.6767 12.0745 73.0204 11.4183 73.4579 10.8715C73.8954 10.3246 74.411 9.90274 75.0047 9.60587C75.6141 9.30901 76.2938 9.16058 77.0437 9.16058C78.1062 9.16058 79.028 9.42619 79.8093 9.95742C80.6061 10.473 81.2233 11.1918 81.6608 12.1136C82.0982 13.0354 82.317 14.1291 82.317 15.3947C82.317 16.6603 82.0982 17.7618 81.6608 18.6993C81.2233 19.6368 80.6061 20.3711 79.8093 20.9023C79.028 21.4179 78.1062 21.6757 77.0437 21.6757C76.0438 21.6757 75.1688 21.4179 74.4188 20.9023C73.6845 20.3711 73.1064 19.6368 72.6845 18.6993C72.2783 17.7618 72.0752 16.6603 72.0752 15.3947ZM80.4889 15.3947C80.4889 13.9417 80.153 12.8167 79.4811 12.0198C78.8249 11.2074 77.9031 10.8011 76.7156 10.8011C75.9031 10.8011 75.2157 10.9808 74.6532 11.3402C74.0907 11.6995 73.661 12.223 73.3642 12.9104C73.0673 13.5979 72.9189 14.426 72.9189 15.3947C72.9189 16.8634 73.247 18.004 73.9032 18.8165C74.5751 19.6289 75.5125 20.0352 76.7156 20.0352C77.5125 20.0352 78.1921 19.8555 78.7546 19.4961C79.3171 19.1212 79.7468 18.5899 80.0436 17.9024C80.3405 17.215 80.4889 16.3791 80.4889 15.3947Z" fill="white"/>
<path d="M66.4938 14.1756C66.4938 13.0038 66.2282 12.16 65.697 11.6444C65.1657 11.1132 64.447 10.8476 63.5408 10.8476C62.9627 10.8476 62.4315 10.9882 61.9471 11.2695C61.4784 11.5351 61.1034 11.9022 60.8221 12.371C60.5565 12.8397 60.4237 13.3866 60.4237 14.0115L59.6269 13.8709C59.6269 12.8866 59.8456 12.0429 60.2831 11.3398C60.7362 10.6367 61.2987 10.0976 61.9705 9.72264C62.658 9.34765 63.3533 9.16016 64.0564 9.16016C64.8689 9.16016 65.5876 9.33984 66.2126 9.6992C66.8376 10.0429 67.3297 10.5664 67.6891 11.2695C68.0641 11.9569 68.2516 12.8006 68.2516 13.8006V21.441H66.4938V14.1756ZM58.6425 14.1756C58.6425 13.0038 58.3769 12.16 57.8457 11.6444C57.3145 11.1132 56.5957 10.8476 55.6895 10.8476C55.1114 10.8476 54.588 10.9882 54.1193 11.2695C53.6505 11.5351 53.2755 11.9022 52.9943 12.371C52.7287 12.8397 52.5959 13.3866 52.5959 14.0115L51.8459 13.8709C51.8459 12.8866 52.0647 12.0429 52.5021 11.3398C52.9396 10.6367 53.4943 10.0976 54.1661 9.72264C54.8536 9.34765 55.5333 9.16016 56.2051 9.16016C57.0176 9.16016 57.7363 9.33984 58.3613 9.6992C59.0019 10.0429 59.5019 10.5664 59.8612 11.2695C60.2362 11.9569 60.4237 12.8006 60.4237 13.8006V21.441H58.6425V14.1756ZM50.8147 9.4414H52.5959V21.441H50.8147V9.4414Z" fill="white"/>
<path d="M47.9293 9.4414V21.441H46.1715V9.4414H47.9293ZM46.9918 15.3943C46.9918 16.3318 46.8746 17.1911 46.6403 17.9723C46.4059 18.7379 46.07 19.402 45.6325 19.9645C45.195 20.5113 44.6716 20.9332 44.0622 21.23C43.4529 21.5269 42.7654 21.6753 41.9998 21.6753C40.9686 21.6753 40.0546 21.4175 39.2577 20.9019C38.4609 20.3707 37.8437 19.6363 37.4062 18.6989C36.9687 17.7614 36.75 16.6599 36.75 15.3943C36.75 14.4568 36.875 13.6053 37.125 12.8397C37.375 12.0741 37.7265 11.4179 38.1796 10.871C38.6484 10.3242 39.203 9.90232 39.8436 9.60545C40.4999 9.30859 41.2186 9.16016 41.9998 9.16016C42.9998 9.16016 43.8747 9.42577 44.6247 9.957C45.3747 10.4726 45.9528 11.1913 46.359 12.1132C46.7809 13.035 46.9918 14.1287 46.9918 15.3943ZM38.5781 15.3943C38.5781 16.863 38.9062 18.0036 39.5624 18.8161C40.2342 19.6285 41.1717 20.0348 42.3748 20.0348C43.1716 20.0348 43.8513 19.8551 44.4138 19.4957C44.9919 19.1207 45.4294 18.5895 45.7262 17.902C46.0231 17.2146 46.1715 16.3786 46.1715 15.3943C46.1715 13.9412 45.8356 12.8163 45.1638 12.0194C44.5075 11.207 43.5779 10.8007 42.3748 10.8007C41.578 10.8007 40.8905 10.9804 40.3124 11.3398C39.7499 11.6991 39.3202 12.2225 39.0234 12.91C38.7265 13.5975 38.5781 14.4256 38.5781 15.3943Z" fill="white"/>
<path d="M0 21.5L14 0.5V28.5" fill="url(#paint0_radial_4569_3732)"/>
<path d="M14 28.5L0 21.5L14 14.5L28 21.5L14 28.5Z" fill="url(#paint1_radial_4569_3732)"/>
<path opacity="0.8" d="M28 21.5L14 0.5V28.5" fill="url(#paint2_linear_4569_3732)"/>
<defs>
<radialGradient id="paint0_radial_4569_3732" cx="0" cy="0" r="1" gradientUnits="userSpaceOnUse" gradientTransform="translate(14 14.8889) rotate(159.864) scale(17.3967 16.8989)">
<stop stop-color="white" stop-opacity="0"/>
<stop offset="1" stop-color="white" stop-opacity="0.4"/>
</radialGradient>
<radialGradient id="paint1_radial_4569_3732" cx="0" cy="0" r="1" gradientUnits="userSpaceOnUse" gradientTransform="translate(33.9111 13.1778) rotate(166.211) scale(34.9174 14.8097)">
<stop stop-color="white" stop-opacity="0.4"/>
<stop offset="1" stop-color="white" stop-opacity="0.1"/>
</radialGradient>
<linearGradient id="paint2_linear_4569_3732" x1="14.4667" y1="28.5" x2="21.0758" y2="11.0287" gradientUnits="userSpaceOnUse">
<stop stop-color="white" stop-opacity="0"/>
<stop offset="1" stop-color="white" stop-opacity="0.8"/>
</linearGradient>
</defs>
</svg>
